<?xml version="1.0" encoding="UTF-8" standalone="no"?>
<!DOCTYPE svg PUBLIC "-//W3C//DTD SVG 1.1//EN" "http://www.w3.org/Graphics/SVG/1.1/DTD/svg11.dtd">
<svg width="100%" height="100%" viewBox="0 0 1347 1347" version="1.1" xmlns="http://www.w3.org/2000/svg" xmlns:xlink="http://www.w3.org/1999/xlink" xml:space="preserve" xmlns:serif="http://www.serif.com/" style="fill-rule:evenodd;clip-rule:evenodd;stroke-linejoin:round;stroke-miterlimit:2;">
    <g transform="matrix(1,0,0,1,-127.129,-2222.18)">
        <g transform="matrix(1,0,0,3.5808,-7737.47,-7351.35)">
            <g transform="matrix(1.12594,0,0,0.314437,7821.43,1974.84)">
                <circle cx="636.394" cy="2820.23" r="598.05" style="fill:white;"/>
            </g>
        </g>
        <g transform="matrix(1,0,0,3.5808,-7737.47,-7351.35)">
            <g transform="matrix(35.427,0,0,9.73946,1035.95,2406.79)">
                <g transform="matrix(0.345936,0,0,0.345936,187.245,7.47541)">
                    <path d="M88.672,158.415L53.061,158.415C48.164,158.415 44.157,154.408 44.157,149.511L44.157,77.939C44.157,73.042 48.164,69.036 53.061,69.036L88.672,69.036C93.569,69.036 97.575,73.042 97.575,77.939L97.575,149.511C97.575,154.408 93.569,158.415 88.672,158.415ZM53.061,140.434L35.08,140.434C30.183,140.434 26.177,136.428 26.177,131.531L26.177,125.421C32.636,125.421 37.872,120.185 37.872,113.725C37.872,107.266 32.636,102.029 26.177,102.029L26.177,95.92C26.177,91.022 30.183,87.016 35.08,87.016L53.061,87.016C57.958,87.016 61.965,91.022 61.965,95.92L61.965,104.821L79.768,104.821L79.768,95.92C79.768,91.022 83.774,87.016 88.671,87.016L106.652,87.016C111.549,87.016 115.556,91.022 115.556,95.92L115.556,102.029C109.096,102.029 103.86,107.266 103.86,113.725C103.86,120.185 109.096,125.421 115.556,125.421L115.556,131.531C115.556,136.428 111.549,140.434 106.652,140.434L88.671,140.434C83.774,140.434 79.768,136.428 79.768,131.53L79.768,122.629L61.965,122.629L61.965,131.53C61.965,136.428 57.958,140.434 53.061,140.434Z" style="fill:rgb(19,77,154);"/>
                </g>
                <g transform="matrix(-0.345936,0,0,0.345936,267.194,7.47541)">
                    <path d="M115.556,104.821C110.638,104.821 106.652,108.808 106.652,113.725C106.652,118.642 110.638,122.629 115.556,122.629C120.473,122.629 124.46,118.642 124.46,113.725C124.46,108.808 120.473,104.821 115.556,104.821" style="fill:rgb(244,202,97);"/>
                </g>
                <g transform="matrix(-0.345936,0,0,0.345936,205.355,7.47541)">
                    <path d="M26.176,104.821C21.259,104.821 17.273,108.808 17.273,113.725C17.273,118.643 21.259,122.629 26.176,122.629C31.094,122.629 35.08,118.643 35.08,113.725C35.08,108.808 31.094,104.821 26.176,104.821" style="fill:rgb(244,202,97);"/>
                </g>
            </g>
        </g>
    </g>
</svg>
