<svg width="100%" height="100%" viewBox="0 0 380 103" version="1.1" xmlns="http://www.w3.org/2000/svg" xmlns:xlink="http://www.w3.org/1999/xlink" xml:space="preserve" xmlns:serif="http://www.serif.com/" style="fill-rule:evenodd;clip-rule:evenodd;stroke-linejoin:round;stroke-miterlimit:2;">
    <g transform="matrix(1,0,0,1,-2323.75,-2797.63)">
        <g transform="matrix(1,0,0,2.79207,2114.41,-2.08409)">
            <g transform="matrix(1.26898,0,0,0.422994,-3623.17,-906.883)">
                <g transform="matrix(0.552333,0,0,0.557038,2971.29,4417.88)">
                    <path d="M246.192,196.967C249.577,198.348 252.285,201.056 253.666,204.441C255.047,201.056 257.755,198.348 261.139,196.967C257.755,195.586 255.047,192.878 253.666,189.494C252.285,192.878 249.577,195.586 246.192,196.967ZM253.666,210.559C253.114,210.559 252.666,210.112 252.666,209.559C252.666,203.167 247.466,197.967 241.075,197.967C240.523,197.967 240.075,197.52 240.075,196.967C240.075,196.415 240.523,195.967 241.075,195.967C247.466,195.967 252.666,190.768 252.666,184.376C252.666,183.824 253.114,183.376 253.666,183.376C254.218,183.376 254.666,183.824 254.666,184.376C254.666,190.768 259.864,195.967 266.257,195.967C266.809,195.967 267.257,196.415 267.257,196.967C267.257,197.52 266.809,197.967 266.257,197.967C259.864,197.967 254.666,203.167 254.666,209.559C254.666,210.112 254.218,210.559 253.666,210.559Z" style="fill:white;fill-rule:nonzero;"/>
                </g>
                <g transform="matrix(0.552333,0,0,0.557038,2971.29,4417.88)">
                    <path d="M552.571,200.588C555.955,201.969 558.664,204.677 560.045,208.061C561.426,204.677 564.134,201.969 567.519,200.588C564.134,199.207 561.426,196.498 560.045,193.114C558.664,196.498 555.955,199.207 552.571,200.588ZM560.045,214.179C559.492,214.179 559.045,213.731 559.045,213.179C559.045,206.787 553.845,201.588 547.453,201.588C546.9,201.588 546.453,201.141 546.453,200.588C546.453,200.035 546.9,199.588 547.453,199.588C553.845,199.588 559.045,194.388 559.045,187.996C559.045,187.443 559.492,186.996 560.045,186.996C560.598,186.996 561.045,187.443 561.045,187.996C561.045,194.388 566.244,199.588 572.636,199.588C573.188,199.588 573.636,200.035 573.636,200.588C573.636,201.141 573.188,201.588 572.636,201.588C566.244,201.588 561.045,206.787 561.045,213.179C561.045,213.731 560.598,214.179 560.045,214.179Z" style="fill:white;fill-rule:nonzero;"/>
                </g>
                <g transform="matrix(0.552333,0,0,0.557038,2971.29,4417.88)">
                    <path d="M104.726,195.652L104.726,207.569L116.598,201.588L104.726,195.652ZM104.638,209.579C104.289,209.579 103.942,209.482 103.633,209.291C103.065,208.94 102.726,208.331 102.726,207.663L102.726,195.513C102.726,194.845 103.065,194.235 103.633,193.885C104.201,193.533 104.896,193.502 105.495,193.801L117.646,199.876C118.298,200.202 118.704,200.858 118.704,201.588C118.704,202.317 118.298,202.973 117.646,203.3L105.495,209.375C105.223,209.511 104.93,209.579 104.638,209.579Z" style="fill:white;fill-rule:nonzero;"/>
                </g>
                <g transform="matrix(0.552333,0,0,0.557038,2971.29,4417.88)">
                    <path d="M451.065,183.041L451.065,194.958L462.938,188.977L451.065,183.041ZM450.977,196.968C450.629,196.968 450.282,196.871 449.973,196.68C449.404,196.329 449.065,195.72 449.065,195.052L449.065,182.901C449.065,182.233 449.404,181.624 449.973,181.273C450.541,180.921 451.236,180.891 451.835,181.189L463.986,187.265C464.639,187.592 465.044,188.247 465.044,188.977C465.044,189.706 464.639,190.361 463.986,190.689L451.835,196.764C451.563,196.899 451.27,196.968 450.977,196.968Z" style="fill:white;fill-rule:nonzero;"/>
                </g>
                <g transform="matrix(0.552333,0,0,0.557038,2971.29,4417.88)">
                    <path d="M317.766,291.416L317.766,303.333L329.639,297.352L317.766,291.416ZM317.679,305.343C317.33,305.343 316.983,305.246 316.674,305.055C316.105,304.704 315.766,304.095 315.766,303.427L315.766,291.276C315.766,290.608 316.105,289.999 316.674,289.648C317.241,289.297 317.937,289.267 318.536,289.565L330.687,295.64C331.339,295.966 331.745,296.622 331.745,297.352C331.745,298.081 331.339,298.737 330.687,299.064L318.536,305.139C318.263,305.274 317.97,305.343 317.679,305.343Z" style="fill:white;fill-rule:nonzero;"/>
                </g>
                <g transform="matrix(0.552333,0,0,0.557038,2971.29,4417.88)">
                    <path d="M147.447,182.802C144.594,182.802 142.272,185.123 142.272,187.977C142.272,190.83 144.594,193.152 147.447,193.152C150.301,193.152 152.622,190.83 152.622,187.977C152.622,185.123 150.301,182.802 147.447,182.802ZM147.447,195.152C143.491,195.152 140.272,191.933 140.272,187.977C140.272,184.02 143.491,180.802 147.447,180.802C151.404,180.802 154.622,184.02 154.622,187.977C154.622,191.933 151.404,195.152 147.447,195.152Z" style="fill:white;fill-rule:nonzero;"/>
                </g>
                <g transform="matrix(0.552333,0,0,0.557038,2971.29,4417.88)">
                    <path d="M397.388,292.177C394.534,292.177 392.212,294.498 392.212,297.352C392.212,300.205 394.534,302.526 397.388,302.526C400.241,302.526 402.563,300.205 402.563,297.352C402.563,294.498 400.241,292.177 397.388,292.177ZM397.388,304.526C393.431,304.526 390.212,301.308 390.212,297.352C390.212,293.396 393.431,290.177 397.388,290.177C401.344,290.177 404.563,293.396 404.563,297.352C404.563,301.308 401.344,304.526 397.388,304.526Z" style="fill:white;fill-rule:nonzero;"/>
                </g>
                <g transform="matrix(0.552333,0,0,0.557038,2971.29,4417.88)">
                    <path d="M614.64,216.013C611.786,216.013 609.465,218.334 609.465,221.188C609.465,224.041 611.786,226.363 614.64,226.363C617.493,226.363 619.815,224.041 619.815,221.188C619.815,218.334 617.493,216.013 614.64,216.013ZM614.64,228.363C610.684,228.363 607.465,225.145 607.465,221.188C607.465,217.231 610.684,214.013 614.64,214.013C618.597,214.013 621.815,217.231 621.815,221.188C621.815,225.145 618.597,228.363 614.64,228.363Z" style="fill:white;fill-rule:nonzero;"/>
                </g>
                <g transform="matrix(0.552333,0,0,0.557038,2971.29,4417.88)">
                    <path d="M508.614,190.328C505.761,190.328 503.438,192.649 503.438,195.503C503.438,198.356 505.761,200.679 508.614,200.679C511.468,200.679 513.789,198.356 513.789,195.503C513.789,192.649 511.468,190.328 508.614,190.328ZM508.614,202.679C504.657,202.679 501.438,199.46 501.438,195.503C501.438,191.547 504.657,188.328 508.614,188.328C512.57,188.328 515.789,191.547 515.789,195.503C515.789,199.46 512.57,202.679 508.614,202.679Z" style="fill:white;fill-rule:nonzero;"/>
                </g>
                <g transform="matrix(0.552333,0,0,0.557038,2971.29,4417.88)">
                    <path d="M138.47,224.755L138.479,224.755L138.47,224.755ZM90.48,327.751L170.295,327.751L170.295,225.755L136.47,225.755L136.47,224.755C136.47,221.401 133.741,218.673 130.388,218.673C127.034,218.673 124.305,221.401 124.305,224.755L124.305,225.755L90.48,225.755L90.48,327.751ZM172.295,329.751L88.48,329.751L88.48,223.755L122.367,223.755C122.861,219.769 126.269,216.673 130.388,216.673C134.505,216.673 137.914,219.769 138.408,223.755L172.295,223.755L172.295,329.751Z" style="fill:white;fill-rule:nonzero;"/>
                </g>
                <g transform="matrix(0.552333,0,0,0.557038,2971.29,4417.88)">
                    <path d="M164.65,322.15L96.126,322.15L96.126,231.316L115.328,231.316L115.328,233.316L98.126,233.316L98.126,320.15L162.65,320.15L162.65,233.316L145.447,233.316L145.447,231.316L164.65,231.316L164.65,322.15Z" style="fill:white;fill-rule:nonzero;"/>
                </g>
                <g transform="matrix(0.552333,0,0,0.557038,2971.29,4417.88)">
                    <path d="M147.447,241.919L113.328,241.919L113.328,224.755L115.328,224.755L115.328,239.919L145.447,239.919L145.447,224.755L147.447,224.755L147.447,241.919Z" style="fill:white;fill-rule:nonzero;"/>
                </g>
                <g transform="matrix(0.552333,0,0,0.557038,2971.29,4417.88)">
                    <rect x="121.391" y="231.837" width="17.993" height="2" style="fill:white;fill-rule:nonzero;"/>
                </g>
                <g transform="matrix(0.552333,0,0,0.557038,2971.29,4417.88)">
                    <path d="M130.388,258.746C118.098,258.746 108.1,268.744 108.1,281.034C108.1,293.324 118.098,303.322 130.388,303.322C142.677,303.322 152.676,293.324 152.676,281.034C152.676,268.744 142.677,258.746 130.388,258.746ZM130.388,305.322C116.995,305.322 106.1,294.427 106.1,281.034C106.1,267.642 116.995,256.746 130.388,256.746C143.78,256.746 154.676,267.642 154.676,281.034C154.676,294.427 143.78,305.322 130.388,305.322Z" style="fill:white;fill-rule:nonzero;"/>
                </g>
                <g transform="matrix(0.552333,0,0,0.557038,2971.29,4417.88)">
                    <path d="M125.081,291.338L116.502,282.76L117.916,281.346L125.081,288.51L142.859,270.731L144.273,272.146L125.081,291.338Z" style="fill:white;fill-rule:nonzero;"/>
                </g>
                <g transform="matrix(0.552333,0,0,0.557038,2971.29,4417.88)">
                    <path d="M195.952,327.751L303.517,327.751L303.517,319.438L195.952,319.438L195.952,327.751ZM305.517,329.751L193.952,329.751L193.952,317.438L305.517,317.438L305.517,329.751Z" style="fill:white;fill-rule:nonzero;"/>
                </g>
                <g transform="matrix(0.552333,0,0,0.557038,2971.29,4417.88)">
                    <path d="M205.526,317.438L293.943,317.438L293.943,295.139C293.943,292.613 291.889,290.56 289.364,290.56L210.105,290.56C207.58,290.56 205.526,292.613 205.526,295.139L205.526,317.438ZM295.943,319.438L203.526,319.438L203.526,295.139C203.526,291.511 206.477,288.56 210.105,288.56L289.364,288.56C292.992,288.56 295.943,291.511 295.943,295.139L295.943,319.438Z" style="fill:white;fill-rule:nonzero;"/>
                </g>
                <g transform="matrix(0.552333,0,0,0.557038,2971.29,4417.88)">
                    <path d="M216.049,288.56L283.42,288.56L283.42,262.678C283.42,262.129 282.974,261.682 282.424,261.682L217.045,261.682C216.496,261.682 216.049,262.129 216.049,262.678L216.049,288.56ZM285.42,290.56L214.049,290.56L214.049,262.678C214.049,261.025 215.393,259.682 217.045,259.682L282.424,259.682C284.076,259.682 285.42,261.025 285.42,262.678L285.42,290.56Z" style="fill:white;fill-rule:nonzero;"/>
                </g>
                <g transform="matrix(0.552333,0,0,0.557038,2971.29,4417.88)">
                    <path d="M230.513,259.682L268.956,259.682C268.434,249.532 260.012,241.435 249.734,241.435C239.457,241.435 231.035,249.532 230.513,259.682ZM270.982,261.682L228.487,261.682L228.487,260.682C228.487,248.966 238.019,239.435 249.734,239.435C261.45,239.435 270.982,248.966 270.982,260.682L270.982,261.682Z" style="fill:white;fill-rule:nonzero;"/>
                </g>
                <g transform="matrix(0.552333,0,0,0.557038,2971.29,4417.88)">
                    <path d="M217.342,311.07L224.391,311.07L224.391,296.927L217.342,296.927L217.342,311.07ZM226.391,313.07L215.342,313.07L215.342,294.927L226.391,294.927L226.391,313.07Z" style="fill:white;fill-rule:nonzero;"/>
                </g>
                <g transform="matrix(0.552333,0,0,0.557038,2971.29,4417.88)">
                    <path d="M236.504,311.07L243.553,311.07L243.553,296.927L236.504,296.927L236.504,311.07ZM245.553,313.07L234.504,313.07L234.504,294.927L245.553,294.927L245.553,313.07Z" style="fill:white;fill-rule:nonzero;"/>
                </g>
                <g transform="matrix(0.552333,0,0,0.557038,2971.29,4417.88)">
                    <path d="M255.666,311.07L262.715,311.07L262.715,296.927L255.666,296.927L255.666,311.07ZM264.715,313.07L253.666,313.07L253.666,294.927L264.715,294.927L264.715,313.07Z" style="fill:white;fill-rule:nonzero;"/>
                </g>
                <g transform="matrix(0.552333,0,0,0.557038,2971.29,4417.88)">
                    <path d="M227.048,282.192L234.097,282.192L234.097,268.049L227.048,268.049L227.048,282.192ZM236.097,284.192L225.048,284.192L225.048,266.049L236.097,266.049L236.097,284.192Z" style="fill:white;fill-rule:nonzero;"/>
                </g>
                <g transform="matrix(0.552333,0,0,0.557038,2971.29,4417.88)">
                    <path d="M246.21,282.192L253.259,282.192L253.259,268.049L246.21,268.049L246.21,282.192ZM255.259,284.192L244.21,284.192L244.21,266.049L255.259,266.049L255.259,284.192Z" style="fill:white;fill-rule:nonzero;"/>
                </g>
                <g transform="matrix(0.552333,0,0,0.557038,2971.29,4417.88)">
                    <path d="M265.373,282.192L272.421,282.192L272.421,268.049L265.373,268.049L265.373,282.192ZM274.421,284.192L263.373,284.192L263.373,266.049L274.421,266.049L274.421,284.192Z" style="fill:white;fill-rule:nonzero;"/>
                </g>
                <g transform="matrix(0.552333,0,0,0.557038,2971.29,4417.88)">
                    <path d="M274.828,311.07L281.877,311.07L281.877,296.927L274.828,296.927L274.828,311.07ZM283.877,313.07L272.828,313.07L272.828,294.927L283.877,294.927L283.877,313.07Z" style="fill:white;fill-rule:nonzero;"/>
                </g>
                <g transform="matrix(0.552333,0,0,0.557038,2971.29,4417.88)">
                    <rect x="248.734" y="233.154" width="2" height="8.281" style="fill:white;fill-rule:nonzero;"/>
                </g>
                <g transform="matrix(0.552333,0,0,0.557038,2971.29,4417.88)">
                    <path d="M250.735,234.218L262.566,234.218L262.566,227.7L250.735,227.7L250.735,234.218ZM264.566,236.218L248.735,236.218L248.735,225.7L264.566,225.7L264.566,236.218Z" style="fill:white;fill-rule:nonzero;"/>
                </g>
                <g transform="matrix(0.552333,0,0,0.557038,2971.29,4417.88)">
                    <rect x="461.732" y="230.436" width="38.257" height="2" style="fill:white;fill-rule:nonzero;"/>
                </g>
                <g transform="matrix(0.552333,0,0,0.557038,2971.29,4417.88)">
                    <rect x="496.576" y="301.444" width="20.671" height="2" style="fill:white;fill-rule:nonzero;"/>
                </g>
                <g transform="matrix(0.552333,0,0,0.557038,2971.29,4417.88)">
                    <rect x="504.113" y="289.612" width="13.134" height="2" style="fill:white;fill-rule:nonzero;"/>
                </g>
                <g transform="matrix(0.552333,0,0,0.557038,2971.29,4417.88)">
                    <rect x="484.015" y="313.009" width="33.232" height="2" style="fill:white;fill-rule:nonzero;"/>
                </g>
                <g transform="matrix(0.552333,0,0,0.557038,2971.29,4417.88)">
                    <path d="M531.14,232.436L513.789,232.436L513.789,215.634L515.789,215.634L515.789,230.436L531.14,230.436L531.14,232.436Z" style="fill:white;fill-rule:nonzero;"/>
                </g>
                <g transform="matrix(0.552333,0,0,0.557038,2971.29,4417.88)">
                    <path d="M531.703,329.464L446.397,329.464L446.397,320.517L448.397,320.517L448.397,327.464L529.703,327.464L529.703,231.34L514.392,216.826L448.397,216.826L448.397,250.452L446.397,250.452L446.397,214.826L515.188,214.826L531.703,230.48L531.703,329.464Z" style="fill:white;fill-rule:nonzero;"/>
                </g>
                <g transform="matrix(0.552333,0,0,0.557038,2971.29,4417.88)">
                    <path d="M468.342,251.404C461.967,251.404 455.593,253.831 450.74,258.684C441.035,268.389 441.035,284.181 450.74,293.886C460.445,303.59 476.237,303.592 485.942,293.886C495.647,284.181 495.647,268.389 485.942,258.684C481.09,253.831 474.716,251.404 468.342,251.404ZM468.341,303.164C461.455,303.164 454.568,300.542 449.326,295.3C438.841,284.815 438.841,267.755 449.326,257.27C459.811,246.784 476.873,246.786 487.356,257.27C497.842,267.755 497.842,284.815 487.356,295.3C482.114,300.542 475.227,303.164 468.341,303.164Z" style="fill:white;fill-rule:nonzero;"/>
                </g>
                <g transform="matrix(0.552333,0,0,0.557038,2971.29,4417.88)">
                    <path d="M468.342,260.477C464.291,260.477 460.242,262.018 457.158,265.101C450.991,271.268 450.991,281.302 457.158,287.469C463.324,293.635 473.357,293.635 479.525,287.469C485.691,281.302 485.691,271.268 479.525,265.101C476.442,262.018 472.391,260.477 468.342,260.477ZM468.342,294.093C463.778,294.093 459.218,292.356 455.744,288.883C448.798,281.936 448.798,270.633 455.744,263.686C462.688,256.742 473.991,256.74 480.939,263.686C487.885,270.633 487.885,281.936 480.939,288.883C477.467,292.355 472.903,294.093 468.342,294.093Z" style="fill:white;fill-rule:nonzero;"/>
                </g>
                <g transform="matrix(0.552333,0,0,0.557038,2971.29,4417.88)">
                    <path d="M448.138,303.833L440.794,296.488L446.361,290.921L447.775,292.335L443.622,296.488L448.138,301.005L452.292,296.851L453.706,298.265L448.138,303.833Z" style="fill:white;fill-rule:nonzero;"/>
                </g>
                <g transform="matrix(0.552333,0,0,0.557038,2971.29,4417.88)">
                    <path d="M440.279,295.975L418.896,317.358C417.778,318.477 417.162,319.963 417.162,321.544C417.162,323.125 417.778,324.612 418.896,325.73C421.203,328.037 424.96,328.038 427.269,325.73L448.651,304.347L440.279,295.975ZM423.082,329.46C421.054,329.46 419.026,328.689 417.482,327.145C415.986,325.648 415.162,323.659 415.162,321.544C415.162,319.429 415.986,317.44 417.482,315.944L440.279,293.147L451.479,304.347L428.683,327.145C427.139,328.689 425.11,329.46 423.082,329.46Z" style="fill:white;fill-rule:nonzero;"/>
                </g>
                <g transform="matrix(0.552333,0,0,0.557038,2971.29,4417.88)">
                    <path d="M589.383,329.751L546.574,329.751L546.574,239.098L600.857,239.098L615.64,253.898L615.64,274.096L613.64,274.096L613.64,254.727L600.027,241.098L548.574,241.098L548.574,327.751L589.383,327.751L589.383,329.751Z" style="fill:white;fill-rule:nonzero;"/>
                </g>
                <g transform="matrix(0.552333,0,0,0.557038,2971.29,4417.88)">
                    <path d="M614.64,255.123L599.253,255.123L599.253,240.098L601.253,240.098L601.253,253.123L614.64,253.123L614.64,255.123Z" style="fill:white;fill-rule:nonzero;"/>
                </g>
                <g transform="matrix(0.552333,0,0,0.557038,2971.29,4417.88)">
                    <path d="M540.201,320.377L538.201,320.377L538.201,230.724L594.162,230.724L594.162,232.724L540.201,232.724L540.201,320.377Z" style="fill:white;fill-rule:nonzero;"/>
                </g>
                <g transform="matrix(0.552333,0,0,0.557038,2971.29,4417.88)">
                    <path d="M605.587,285.424C604.16,285.424 603,286.584 603,288.011C603,289.438 604.16,290.599 605.587,290.599L618.625,290.599C620.052,290.599 621.212,289.438 621.212,288.011C621.212,286.584 620.052,285.424 618.625,285.424L605.587,285.424ZM618.625,292.599L605.587,292.599C603.058,292.599 601,290.54 601,288.011C601,285.481 603.058,283.424 605.587,283.424L618.625,283.424C621.154,283.424 623.212,285.481 623.212,288.011C623.212,290.54 621.154,292.599 618.625,292.599Z" style="fill:white;fill-rule:nonzero;"/>
                </g>
                <g transform="matrix(0.552333,0,0,0.557038,2971.29,4417.88)">
                    <path d="M605.587,310.049C604.16,310.049 603,311.209 603,312.636C603,314.063 604.16,315.223 605.587,315.223L618.625,315.223C620.052,315.223 621.212,314.063 621.212,312.636C621.212,311.209 620.052,310.049 618.625,310.049L605.587,310.049ZM618.625,317.223L605.587,317.223C603.058,317.223 601,315.165 601,312.636C601,310.106 603.058,308.049 605.587,308.049L618.625,308.049C621.154,308.049 623.212,310.106 623.212,312.636C623.212,315.165 621.154,317.223 618.625,317.223Z" style="fill:white;fill-rule:nonzero;"/>
                </g>
                <g transform="matrix(0.552333,0,0,0.557038,2971.29,4417.88)">
                    <path d="M606.789,308.049L617.422,308.049L617.422,292.599L606.789,292.599L606.789,308.049ZM619.422,310.049L604.789,310.049L604.789,290.599L619.422,290.599L619.422,310.049Z" style="fill:white;fill-rule:nonzero;"/>
                </g>
                <g transform="matrix(0.552333,0,0,0.557038,2971.29,4417.88)">
                    <path d="M577.46,297.904C576.065,297.904 574.93,299.04 574.93,300.435C574.93,301.831 576.065,302.966 577.46,302.966L604.789,302.966L604.789,297.904L577.46,297.904ZM606.789,304.966L577.46,304.966C574.962,304.966 572.93,302.934 572.93,300.435C572.93,297.936 574.962,295.904 577.46,295.904L606.789,295.904L606.789,304.966Z" style="fill:white;fill-rule:nonzero;"/>
                </g>
                <g transform="matrix(0.552333,0,0,0.557038,2971.29,4417.88)">
                    <path d="M599.227,327.751L625.214,327.751L625.214,324.215L599.227,324.215L599.227,327.751ZM627.214,329.751L597.227,329.751L597.227,322.215L627.214,322.215L627.214,329.751Z" style="fill:white;fill-rule:nonzero;"/>
                </g>
                <g transform="matrix(0.552333,0,0,0.557038,2971.29,4417.88)">
                    <rect x="592.568" y="327.751" width="37.951" height="2" style="fill:white;fill-rule:nonzero;"/>
                </g>
                <g transform="matrix(0.552333,0,0,0.557038,2971.29,4417.88)">
                    <rect x="560.045" y="264.647" width="21.003" height="2" style="fill:white;fill-rule:nonzero;"/>
                </g>
                <g transform="matrix(0.552333,0,0,0.557038,2971.29,4417.88)">
                    <rect x="560.045" y="273.096" width="29.814" height="2" style="fill:white;fill-rule:nonzero;"/>
                </g>
                <g transform="matrix(0.552333,0,0,0.557038,2971.29,4417.88)">
                    <rect x="560.045" y="281.545" width="29.814" height="2" style="fill:white;fill-rule:nonzero;"/>
                </g>
                <g transform="matrix(0.552333,0,0,0.557038,2971.29,4417.88)">
                    <rect x="303.517" y="327.751" width="112.934" height="2" style="fill:white;fill-rule:nonzero;"/>
                </g>
                <g transform="matrix(0.552333,0,0,0.557038,2971.29,4417.88)">
                    <path d="M340.572,327.751L379.396,327.751L379.396,318.397L340.572,318.397L340.572,327.751ZM381.396,329.751L338.572,329.751L338.572,316.397L381.396,316.397L381.396,329.751Z" style="fill:white;fill-rule:nonzero;"/>
                </g>
                <g transform="matrix(0.552333,0,0,0.557038,2971.29,4417.88)">
                    <rect x="351.891" y="215.603" width="2" height="102.794" style="fill:white;fill-rule:nonzero;"/>
                </g>
                <g transform="matrix(0.552333,0,0,0.557038,2971.29,4417.88)">
                    <path d="M420.706,210.021L373.145,210.021L373.145,208.021L420.706,208.021C423.554,208.021 425.871,205.704 425.871,202.855C425.871,200.008 423.554,197.691 420.706,197.691L373.145,197.691L373.145,195.691L420.706,195.691C424.657,195.691 427.871,198.905 427.871,202.855C427.871,206.807 424.657,210.021 420.706,210.021Z" style="fill:white;fill-rule:nonzero;"/>
                </g>
                <g transform="matrix(0.552333,0,0,0.557038,2971.29,4417.88)">
                    <path d="M346.822,210.021L299.262,210.021C295.311,210.021 292.097,206.807 292.097,202.855C292.097,198.905 295.311,195.691 299.262,195.691L346.822,195.691L346.822,197.691L299.262,197.691C296.414,197.691 294.097,200.008 294.097,202.855C294.097,205.704 296.414,208.021 299.262,208.021L346.822,208.021L346.822,210.021Z" style="fill:white;fill-rule:nonzero;"/>
                </g>
                <g transform="matrix(0.552333,0,0,0.557038,2971.29,4417.88)">
                    <path d="M291.447,253.526L317.587,253.526L304.517,212.328L291.447,253.526ZM318.954,255.526L290.081,255.526L289.127,254.224L303.564,208.719L305.47,208.719L319.907,254.224L318.954,255.526Z" style="fill:white;fill-rule:nonzero;"/>
                </g>
                <g transform="matrix(0.552333,0,0,0.557038,2971.29,4417.88)">
                    <path d="M402.381,253.526L428.521,253.526L415.451,212.328L402.381,253.526ZM429.888,255.526L401.015,255.526L400.061,254.224L414.498,208.719L416.404,208.719L430.841,254.224L429.888,255.526Z" style="fill:white;fill-rule:nonzero;"/>
                </g>
                <g transform="matrix(0.552333,0,0,0.557038,2971.29,4417.88)">
                    <path d="M304.517,279.918C299.063,279.918 293.866,278.215 289.487,274.994L288.682,274.401L289.867,272.79L290.672,273.383C294.705,276.35 299.492,277.918 304.517,277.918C317.08,277.918 327.362,267.962 327.888,255.526L279.125,255.526L279.125,253.526L329.909,253.526L329.909,254.526C329.909,268.527 318.519,279.918 304.517,279.918Z" style="fill:white;fill-rule:nonzero;"/>
                </g>
                <g transform="matrix(0.552333,0,0,0.557038,2971.29,4417.88)">
                    <path d="M392.08,255.526C392.605,267.962 402.888,277.918 415.451,277.918C428.014,277.918 438.296,267.962 438.821,255.526L392.08,255.526ZM415.451,279.918C401.449,279.918 390.059,268.527 390.059,254.526L390.059,253.526L440.843,253.526L440.843,254.526C440.843,268.527 429.452,279.918 415.451,279.918Z" style="fill:white;fill-rule:nonzero;"/>
                </g>
                <g transform="matrix(0.552333,0,0,0.557038,2971.29,4417.88)">
                    <path d="M341.264,185.056L339.698,183.811L340.319,183.028C345.121,176.985 352.288,173.519 359.984,173.519C367.208,173.519 374.089,176.642 378.862,182.087L379.521,182.839L378.018,184.157L377.358,183.405C372.965,178.394 366.632,175.519 359.984,175.519C352.902,175.519 346.305,178.71 341.886,184.273L341.264,185.056Z" style="fill:white;fill-rule:nonzero;"/>
                </g>
                <g transform="matrix(0.552333,0,0,0.557038,2971.29,4417.88)">
                    <path d="M359.983,189.977C352.727,189.977 346.822,195.881 346.822,203.138C346.822,210.395 352.727,216.299 359.983,216.299C367.241,216.299 373.145,210.395 373.145,203.138C373.145,195.881 367.241,189.977 359.983,189.977ZM359.983,218.299C351.624,218.299 344.822,211.498 344.822,203.138C344.822,194.777 351.624,187.977 359.983,187.977C368.344,187.977 375.145,194.777 375.145,203.138C375.145,211.498 368.344,218.299 359.983,218.299Z" style="fill:white;fill-rule:nonzero;"/>
                </g>
                <g transform="matrix(0.552333,0,0,0.557038,2971.29,4417.88)">
                    <rect x="365.321" y="215.603" width="2" height="102.794" style="fill:white;fill-rule:nonzero;"/>
                </g>
                <g transform="matrix(0.552333,0,0,0.557038,2971.29,4417.88)">
                    <rect x="181.11" y="174.519" width="2" height="34.505" style="fill:white;fill-rule:nonzero;"/>
                </g>
                <g transform="matrix(0.552333,0,0,0.557038,2971.29,4417.88)">
                    <rect x="199.998" y="174.519" width="2" height="34.505" style="fill:white;fill-rule:nonzero;"/>
                </g>
                <g transform="matrix(0.552333,0,0,0.557038,2971.29,4417.88)">
                    <path d="M174.065,175.519C173.81,175.519 173.602,175.727 173.602,175.983L173.602,202.904C173.602,203.073 173.693,203.229 173.841,203.311L191.335,212.981C191.472,213.058 191.636,213.059 191.773,212.98L209.264,203.313C209.414,203.23 209.506,203.072 209.506,202.901L209.506,175.983C209.506,175.727 209.298,175.519 209.042,175.519L174.065,175.519ZM191.554,215.04C191.146,215.04 190.737,214.936 190.365,214.73L172.873,205.061C172.089,204.627 171.602,203.801 171.602,202.904L171.602,175.983C171.602,174.624 172.707,173.519 174.065,173.519L209.042,173.519C210.401,173.519 211.506,174.624 211.506,175.983L211.506,202.901C211.506,203.8 211.018,204.628 210.231,205.063L192.742,214.73C192.371,214.936 191.962,215.04 191.554,215.04Z" style="fill:white;fill-rule:nonzero;"/>
                </g>
                <g transform="matrix(0.552333,0,0,0.557038,2971.29,4417.88)">
                    <path d="M191.554,263.119C186.369,263.119 181.345,261.27 177.406,257.908C176.985,257.55 176.936,256.918 177.294,256.498C177.652,256.078 178.283,256.025 178.704,256.386C182.281,259.439 186.845,261.119 191.554,261.119C202.476,261.119 211.361,252.233 211.361,241.311C211.361,230.39 202.476,221.504 191.554,221.504C187.476,221.504 183.56,222.733 180.23,225.059C179.776,225.374 179.153,225.263 178.837,224.811C178.521,224.358 178.632,223.734 179.084,223.418C182.752,220.857 187.063,219.504 191.554,219.504C203.579,219.504 213.361,229.287 213.361,241.311C213.361,253.336 203.579,263.119 191.554,263.119Z" style="fill:white;fill-rule:nonzero;"/>
                </g>
                <g transform="matrix(0.552333,0,0,0.557038,2971.29,4417.88)">
                    <path d="M191.554,215.037C190.321,215.037 189.317,216.041 189.317,217.274C189.317,218.508 190.321,219.511 191.554,219.511C192.787,219.511 193.79,218.508 193.79,217.274C193.79,216.041 192.787,215.037 191.554,215.037ZM191.554,221.511C189.218,221.511 187.317,219.61 187.317,217.274C187.317,214.938 189.218,213.037 191.554,213.037C193.89,213.037 195.79,214.938 195.79,217.274C195.79,219.61 193.89,221.511 191.554,221.511Z" style="fill:white;fill-rule:nonzero;"/>
                </g>
                <g transform="matrix(0.552333,0,0,0.557038,2971.29,4417.88)">
                    <path d="M190.85,230.548L190.85,230.55L190.85,230.548ZM195.557,236.345L195.565,236.346C195.563,236.346 195.56,236.345 195.557,236.345ZM187.546,236.346C187.544,236.346 187.54,236.346 187.538,236.347L187.546,236.346ZM179.989,239.465L179.987,239.465L179.989,239.465ZM203.121,239.465C203.122,239.465 203.122,239.465 203.123,239.466L203.121,239.465ZM184.477,244.399L184.477,244.402L184.477,244.399ZM198.412,245.087L198.405,245.094C198.407,245.092 198.41,245.089 198.412,245.087ZM184.701,245.091C184.703,245.094 184.706,245.097 184.708,245.099L184.701,245.091ZM191.92,249.806L191.918,249.807C191.919,249.806 191.919,249.806 191.92,249.806ZM191.189,249.806C191.189,249.807 191.19,249.807 191.19,249.807L191.189,249.806ZM191.554,247.895C191.748,247.895 191.943,247.942 192.121,248.036L197.731,250.985L196.659,244.737C196.592,244.337 196.725,243.935 197.014,243.657L201.548,239.236L195.274,238.324C194.881,238.27 194.537,238.02 194.359,237.659L191.554,231.976L188.748,237.66C188.571,238.02 188.227,238.27 187.829,238.325L181.56,239.236L186.1,243.662C186.385,243.936 186.518,244.342 186.449,244.739L185.377,250.985L190.988,248.036C191.165,247.942 191.359,247.895 191.554,247.895ZM198.774,253.637C198.581,253.637 198.387,253.59 198.207,253.495L191.554,249.998L184.901,253.495C184.487,253.714 183.997,253.676 183.62,253.402C183.243,253.129 183.059,252.673 183.138,252.214L184.408,244.806L179.025,239.559C178.69,239.23 178.574,238.753 178.719,238.311C178.864,237.868 179.24,237.552 179.701,237.485L187.138,236.404L190.464,229.665C190.67,229.247 191.088,228.987 191.554,228.987L191.556,228.987C192.021,228.988 192.438,229.247 192.644,229.665L195.97,236.404L203.409,237.486C203.869,237.552 204.245,237.868 204.39,238.311C204.535,238.755 204.417,239.232 204.083,239.558L198.7,244.806L199.971,252.215C200.049,252.676 199.863,253.131 199.486,253.404C199.273,253.558 199.024,253.637 198.774,253.637Z" style="fill:white;fill-rule:nonzero;"/>
                </g>
                <g transform="matrix(0.552333,0,0,0.557038,2971.29,4417.88)">
                    <rect x="89.48" y="327.751" width="541.039" height="2" style="fill:white;fill-rule:nonzero;"/>
                </g>
            </g>
        </g>
    </g>
</svg>
